<svg width="322" height="82" xmlns="http://www.w3.org/2000/svg">
 <!-- Created with Method Draw - http://github.com/duopixel/Method-Draw/ -->

 <g>
  <title>background</title>
  <rect fill="none" id="canvas_background" height="84" width="324" y="-1" x="-1"/>
  <g id="canvasGrid" display="none">
   <rect id="svg_1" width="100%" height="100%" x="0" y="0" stroke-width="0" fill="url(#gridpattern)"/>
  </g>
 </g>
 <g>
  <title>Layer 1</title>
  <path fill="none" stroke="#000" stroke-width="1.5" stroke-opacity="null" fill-opacity="null" d="m328.5,78.04073l-21.45627,0l0,-1.70448l-0.73659,0l0,-11.82953c0,-0.30878 -0.77393,-0.72873 -1.72438,-1.1425c0.48201,-1.0406 1.79566,-4.36312 1.84658,-9.83786a25.06795,22.80371 0 0 0 1.85336,-2.16149l-0.3021,-1.0159a0.2444,0.22233 0 0 0 -0.11202,-0.16983c-0.2444,-0.15748 -1.01833,-0.17601 -3.52682,1.28763c-2.11813,1.23513 -10.6891,4.24887 -22.25057,6.54313l-0.62457,0.25938l0.62457,-0.25938c-8.29601,1.64582 -18.1365,2.92419 -28.23496,2.92419c0,0 -2.03667,-0.07102 -5.23084,-0.30879l0,-3.74246l-4.49084,0l0,-3.56646l-9.36866,0l0,-15.43921l-0.74678,-0.96649l-0.21046,-0.27791l-0.4277,-0.55272l-0.63815,-0.8121l-0.21385,-0.27791l-1.80924,-3.45529l-1.8907,0l-4.89139,3.85671l-5.11203,0l0,-15.00382l-3.39444,-3.50779l0,-1.95152l-1.8364,0l-3.94773,3.54176l-0.93687,1.23513l0,17.10665l-3.03463,0l0,-4.40944l-12.87512,0l0,6.66356l-1.67346,0l0,-1.77242l-0.53292,0l0,-1.23513l-6.40192,0l0,1.23513l-0.49219,0l0,1.77242l-1.43925,0l0,-0.37054l0.87577,-0.79666l0,-0.16057s-0.89274,-0.01853 -2.23015,0.02779l0,-8.48539l-6.49017,0l0,9.17089a16.97221,15.43921 0 0 0 -1.94502,0.50641l0,-0.6608l-5.14936,0l-1.18127,-19.97834l0.67889,0l1.29328,-1.6242l0.70604,0l0,-2.31588l0.33945,0l0,-1.30616l0.86219,0l0,-0.30878s-0.92329,-1.75699 -3.75086,-1.75699l-0.07129,0l0,-1.05913l-1.25933,0l0,-0.95723l0.51256,0l0,-0.44465l-0.67889,0l0,-5.54576l-0.33944,0l0,5.55812l-0.67889,0l0,0.43538l0.51256,0l0,0.95415l-1.25934,0l0,1.07148l-0.07128,0c-2.82757,0 -3.75426,1.75698 -3.75426,1.75698l0,0.30878l0.86219,0l0,1.30616l0.33945,0l0,2.31588l0.70604,0l1.28989,1.62421l0.67889,0l-1.14732,18.27076l-2.79363,-0.53111l0,-3.30399l-6.75833,0l0,-5.44696l-11.28652,0l0,2.16149l-5.63817,0l-2.56959,3.28547l0,9.34998l-1.56484,-2.3097l-12.63072,0l-3.055,2.63701l0,0.85225l-2.40666,0l0,2.49497l-0.29192,-0.61757l-0.87237,0l0,-0.82754l-8.68977,0l0,0.83063l-0.87237,0l-0.40055,0.84607l0,3.48617l-3.22811,0l0,3.08785l-0.87237,0l-1.89071,-1.23514l-5.0645,0l-1.89071,1.23514l-1.06246,0l0,8.36187l-5.09166,0l0,-25.3203l-3.1127,0l0,0.66388l-4.43654,0l0,1.46055l-1.26273,0l0,6.60181l-1.81263,0.78431l0,2.16149l-2.43382,0l0,5.9441l-3.81196,0l0,1.54392l-0.79769,0l0,0.54037l-6.71421,0l0,16.30381l-0.27495,0l0,-37.9187l-15.31232,0l0,39.4657l-3.51325,0l0,-2.43939l-4.05296,0l0,-13.8675l-9.98985,0l0,21.16716l-21.72442,0" id="svg_3"/>
 </g>
</svg>