<svg xmlns="http://www.w3.org/2000/svg" width="956.77" height="244.02" viewBox="0 0 956.77 244.02"><title>skyline-calgary</title><g id="Layer_2" data-name="Layer 2"><g id="Content"><path d="M956.77,243.52H893.56V238h-2.17V199.69c0-1-2.28-2.36-5.08-3.7,1.42-3.37,5.29-14.13,5.44-31.86a73.85,73.85,0,0,0,5.46-7l-.89-3.29a.72.72,0,0,0-.33-.55c-.72-.51-3-.57-10.39,4.17-6.24,4-31.49,13.76-65.55,21.19l-1.84.84,1.84-.84c-24.44,5.33-53.43,9.47-83.18,9.47,0,0-6-.23-15.41-1V175H708.23V163.45h-27.6v-50l-2.2-3.13-.62-.9-1.26-1.79L674.67,105l-.63-.9-5.33-11.19h-5.57l-14.41,12.49H633.67V56.81l-10-11.36V39.13h-5.41L606.63,50.6l-2.76,4V110h-8.94V95.72H557V117.3h-4.93v-5.74H550.5v-4H531.64v4h-1.45v5.74h-4.24v-1.2l2.58-2.58V113s-2.63-.06-6.57.09V85.61H502.84v29.7a50,50,0,0,0-5.73,1.64v-2.14H481.94l-3.48-64.7h2l3.81-5.26h2.08v-7.5h1V33.12h2.54v-1s-2.72-5.69-11.05-5.69h-.21V23h-3.71v-3.1h1.51V18.46h-2V.5h-1v18h-2v1.41h1.51V23h-3.71v3.47h-.21c-8.33,0-11.06,5.69-11.06,5.69v1h2.54v4.23h1v7.5h2.08l3.8,5.26h2L466,109.32l-8.23-1.72V96.9H437.86V79.26H404.61v7H388L380.43,96.9v30.28l-4.61-7.48H338.61l-9,8.54V131h-7.09v8.08l-.86-2h-2.57V134.4H293.49v2.69h-2.57l-1.18,2.74v11.29h-9.51v10h-2.57l-5.57-4H257.17l-5.57,4h-3.13v27.08h-15v-82H224.3v2.15H211.23v4.73h-3.72v21.38L202.17,137V144H195v19.25H183.77v5h-2.35V170H161.64v52.8h-.81V100H115.72V227.81H105.37v-7.9H93.43V175H64v68.55H0" style="fill:none;stroke:#0076c0;stroke-miterlimit:10"/></g></g></svg>